<svg id='Document_24' width='24' height='24' viewBox='0 0 24 24' xmlns='http://www.w3.org/2000/svg' xmlns:xlink='http://www.w3.org/1999/xlink'><rect width='24' height='24' stroke='none' fill='#fafafa' opacity='0'/>

<g transform="matrix(0.43 0 0 0.43 12 12)" >
<path style="stroke: none; stroke-width: 1; stroke-dasharray: none; stroke-linecap: butt; stroke-dashoffset: 0; stroke-linejoin: miter; stroke-miterlimit: 4; fill: #fafafa; fill-rule: nonzero; opacity: 1;" transform=" translate(-25, -25)" d="M 7 2 L 7 48 L 43 48 L 43 14.59375 L 42.71875 14.28125 L 30.71875 2.28125 L 30.40625 2 Z M 9 4 L 29 4 L 29 16 L 41 16 L 41 46 L 9 46 Z M 31 5.4375 L 39.5625 14 L 31 14 Z M 15 22 L 15 24 L 35 24 L 35 22 Z M 15 28 L 15 30 L 31 30 L 31 28 Z M 15 34 L 15 36 L 35 36 L 35 34 Z" stroke-linecap="round" />
</g>
</svg>