<svg id='Movie_Beginning_24' width='24' height='24' viewBox='0 0 24 24' xmlns='http://www.w3.org/2000/svg' xmlns:xlink='http://www.w3.org/1999/xlink'><rect width='24' height='24' stroke='none' fill='#fafafa' opacity='0'/>


<g transform="matrix(0.17 0 0 0.17 12 12)" >
<path style="stroke: none; stroke-width: 1; stroke-dasharray: none; stroke-linecap: butt; stroke-dashoffset: 0; stroke-linejoin: miter; stroke-miterlimit: 4; fill: #fafafa; fill-rule: nonzero; opacity: 1;" transform=" translate(-64, -64)" d="M 14 21 C 9.6 21 6 24.6 6 29 L 6 94 C 6 95.7 7.3 97 9 97 C 10.7 97 12 95.7 12 94 L 12 87 L 21 87 L 21 101 L 19 101 C 17.3 101 16 102.3 16 104 C 16 105.7 17.3 107 19 107 L 114 107 C 118.4 107 122 103.4 122 99 L 122 29 C 122 24.6 118.4 21 114 21 L 14 21 z M 14 27 L 21 27 L 21 41 L 12 41 L 12 29 C 12 27.9 12.9 27 14 27 z M 37 27 L 91 27 C 96.5 27 101 31.5 101 37 L 101 91 C 101 96.5 96.5 101 91 101 L 37 101 C 31.5 101 27 96.5 27 91 L 27 37 C 27 31.5 31.5 27 37 27 z M 107 27 L 114 27 C 115.1 27 116 27.9 116 29 L 116 41 L 107 41 L 107 27 z M 12 47 L 21 47 L 21 61 L 12 61 L 12 47 z M 107 47 L 116 47 L 116 61 L 107 61 L 107 47 z M 55.753906 51.876953 C 54.207031 51.900391 52.800781 53.175391 52.800781 54.900391 L 52.800781 73.099609 C 52.800781 75.399609 55.300781 76.899219 57.300781 75.699219 L 73.099609 66.599609 C 75.099609 65.399609 75.099609 62.600391 73.099609 61.400391 L 57.300781 52.300781 C 56.800781 52.000781 56.269531 51.869141 55.753906 51.876953 z M 12 67 L 21 67 L 21 81 L 12 81 L 12 67 z M 107 67 L 116 67 L 116 81 L 107 81 L 107 67 z M 107 87 L 116 87 L 116 99 C 116 100.1 115.1 101 114 101 L 107 101 L 107 87 z" stroke-linecap="round" />
</g>
</svg>