<svg id='Prev_24' width='24' height='24' viewBox='0 0 24 24' xmlns='http://www.w3.org/2000/svg' xmlns:xlink='http://www.w3.org/1999/xlink'><rect width='24' height='24' stroke='none' fill='#fafafa' opacity='0'/>


<g transform="matrix(0.2 0 0 0.2 12 12)" >
<g style="" >
<g transform="matrix(1 0 0 1 0 0)" >
<path style="stroke: none; stroke-width: 1; stroke-dasharray: none; stroke-linecap: butt; stroke-dashoffset: 0; stroke-linejoin: miter; stroke-miterlimit: 4; fill: #fafafa; fill-rule: nonzero; opacity: 1;" transform=" translate(-50, -50)" d="M 65 88 L 73 80 L 43 50 L 73 20 L 65 12 L 27 50 z" stroke-linecap="round" />
</g>
<g transform="matrix(1 0 0 1 0 0)" >
<path style="stroke: none; stroke-width: 1; stroke-dasharray: none; stroke-linecap: butt; stroke-dashoffset: 0; stroke-linejoin: miter; stroke-miterlimit: 4; fill: #fafafa; fill-rule: nonzero; opacity: 1;" transform=" translate(-50, -50)" d="M 65 89 C 64.744 89 64.488 88.902 64.293 88.707 L 26.293000000000006 50.706999999999994 C 25.902000000000008 50.315999999999995 25.902000000000008 49.68399999999999 26.293000000000006 49.29299999999999 L 64.293 11.292999999999992 C 64.68400000000001 10.901999999999992 65.316 10.901999999999992 65.70700000000001 11.292999999999992 L 73.70700000000001 19.292999999999992 C 74.09800000000001 19.68399999999999 74.09800000000001 20.315999999999992 73.70700000000001 20.706999999999994 L 44.414 50 L 73.707 79.293 C 74.098 79.68400000000001 74.098 80.316 73.707 80.70700000000001 L 65.707 88.70700000000001 C 65.512 88.902 65.256 89 65 89 z M 28.414 50 L 65 86.586 L 71.586 80 L 42.293 50.707 C 41.902 50.316 41.902 49.684 42.293 49.293 L 71.586 20 L 65 13.414 L 28.414 50 z" stroke-linecap="round" />
</g>
<g transform="matrix(1 0 0 1 -2.75 0)" >
<path style="stroke: none; stroke-width: 1; stroke-dasharray: none; stroke-linecap: butt; stroke-dashoffset: 0; stroke-linejoin: miter; stroke-miterlimit: 4; fill: #fafafa; fill-rule: nonzero; opacity: 1;" transform=" translate(-47.25, -50)" d="M 32.5 50.5 C 32.372 50.5 32.244 50.451 32.146 50.354 C 31.951 50.159 31.951 49.842 32.146 49.647 L 33.646 48.147 C 33.841 47.952 34.158 47.952 34.353 48.147 C 34.548 48.342 34.548 48.659 34.353 48.854 L 32.853 50.354 C 32.756 50.451 32.628 50.5 32.5 50.5 z M 36.5 46.5 C 36.372 46.5 36.244 46.451 36.146 46.354 C 35.951 46.159 35.951 45.842 36.146 45.647 L 39.646 42.147 C 39.841 41.952 40.158 41.952 40.353 42.147 C 40.548 42.342 40.548 42.659 40.353 42.854 L 36.853 46.354 C 36.756 46.451 36.628 46.5 36.5 46.5 z M 62 80 C 61.872 80 61.744 79.951 61.646 79.854 L 37.646 55.854 C 37.451 55.659 37.451 55.342 37.646 55.147 C 37.841 54.952 38.158 54.952 38.353 55.147 L 62.353 79.14699999999999 C 62.548 79.34199999999998 62.548 79.65899999999999 62.353 79.85399999999998 C 62.256 79.951 62.128 80 62 80 z M 45.5 37.5 C 45.372 37.5 45.244 37.451 45.146 37.354 C 44.951 37.159 44.951 36.842 45.146 36.647 L 61.646 20.147 C 61.841 19.951999999999998 62.158 19.951999999999998 62.353 20.147 C 62.548 20.342 62.548 20.659 62.353 20.854 L 45.853 37.354 C 45.756 37.451 45.628 37.5 45.5 37.5 z" stroke-linecap="round" />
</g>
</g>
</g>
</svg>